<svg xmlns="http://www.w3.org/2000/svg" xmlns:xlink="http://www.w3.org/1999/xlink" width="374" height="259" version="1.1" viewBox="0 0 374 259"><title>web</title><desc>Created with Sketch.</desc><defs><path id="path-1" d="M374,258.387674 L374,2.99770155 C374,1.3421167 372.664274,0 371.003177,0 L2.99682323,0 C1.34172346,0 0,1.35009899 0,2.99770155 L0,258.387674 L374,258.387674 Z"/><mask id="mask-2" width="374" height="258.388" x="0" y="0" fill="#fff" maskContentUnits="userSpaceOnUse" maskUnits="objectBoundingBox"><use xlink:href="#path-1"/></mask><ellipse id="path-3" cx="13.5" cy="14.5" rx="2.5" ry="2.5"/><mask id="mask-4" width="7" height="7" x="-1" y="-1" maskContentUnits="userSpaceOnUse" maskUnits="objectBoundingBox"><rect width="7" height="7" x="10" y="11" fill="#fff"/><use fill="#000" xlink:href="#path-3"/></mask><ellipse id="path-5" cx="26.5" cy="14.5" rx="2.5" ry="2.5"/><mask id="mask-6" width="7" height="7" x="-1" y="-1" maskContentUnits="userSpaceOnUse" maskUnits="objectBoundingBox"><rect width="7" height="7" x="23" y="11" fill="#fff"/><use fill="#000" xlink:href="#path-5"/></mask><ellipse id="path-7" cx="39.5" cy="14.5" rx="2.5" ry="2.5"/><mask id="mask-8" width="7" height="7" x="-1" y="-1" maskContentUnits="userSpaceOnUse" maskUnits="objectBoundingBox"><rect width="7" height="7" x="36" y="11" fill="#fff"/><use fill="#000" xlink:href="#path-7"/></mask></defs><g id="Studies" fill="none" fill-rule="evenodd" stroke="none" stroke-width="1"><g id="Desktop-HD" stroke="#fff" stroke-width="2" transform="translate(-942.000000, -84.000000)"><g id="Web" transform="translate(942.000000, 84.000000)"><g id="web"><use id="Nav-bar" mask="url(#mask-2)" xlink:href="#path-1"/><use id="circle3" mask="url(#mask-4)" xlink:href="#path-3"/><use id="circle2" mask="url(#mask-6)" xlink:href="#path-5"/><use id="circle" mask="url(#mask-8)" xlink:href="#path-7"/></g></g></g></g></svg>